<svg xmlns="http://www.w3.org/2000/svg" viewBox="0 0 24 24" width="32" height="32">
  <path fill="#ECE6D8" fill-rule="evenodd" clip-rule="evenodd" d="M12 1.2C12.95 9.2 15 11.05 22.8 12C15 12.95 12.95 15 12 22.8C11.05 15 9 12.95 1.2 12C9 11.05 11.05 9.2 12 1.2ZM12 8.55A3.45 3.45 0 1 0 12 15.45A3.45 3.45 0 1 0 12 8.55Z"/>
  <circle cx="12" cy="12" r="1.95" fill="#ECE6D8"/>
  <path fill="#ECE6D8" d="M19.2 2.9C19.5 4.45 19.85 4.8 21.4 5.1C19.85 5.4 19.5 5.75 19.2 7.3C18.9 5.75 18.55 5.4 17 5.1C18.55 4.8 18.9 4.45 19.2 2.9Z"/>
</svg>
